<svg width="98" height="96" viewBox="0 0 98 96" fill="none" xmlns="http://www.w3.org/2000/svg">
<path d="M49.0295 63.6741C57.8882 63.6741 65.0695 56.5472 65.0695 47.7556C65.0695 38.964 57.8882 31.8371 49.0295 31.8371C40.1708 31.8371 32.9894 38.964 32.9894 47.7556C32.9894 56.5472 40.1708 63.6741 49.0295 63.6741Z" stroke="white" stroke-width="7" stroke-linecap="round" stroke-linejoin="round"/>
<path d="M65.0695 47.7558V53.7252C65.0695 56.3639 66.1257 58.8945 68.0058 60.7603C69.8858 62.6261 72.4357 63.6743 75.0945 63.6743C77.7533 63.6743 80.3033 62.6261 82.1833 60.7603C84.0634 58.8945 85.1196 56.3639 85.1196 53.7252V47.7558C85.1295 40.0596 82.6413 32.5649 78.0234 26.3819C73.4056 20.199 66.9038 15.6566 59.4811 13.4278C52.0585 11.199 44.1098 11.4023 36.8127 14.0075C29.5156 16.6128 23.2581 21.4814 18.9672 27.8921C14.6764 34.3029 12.5804 41.9148 12.9897 49.6003C13.399 57.2858 16.292 64.636 21.2399 70.5621C26.1878 76.4882 32.9276 80.675 40.4608 82.5023C47.9941 84.3296 55.92 83.7001 63.0645 80.7071" stroke="white" stroke-width="7" stroke-linecap="round" stroke-linejoin="round"/>
</svg>
