<svg width="84" height="84" viewBox="0 0 84 84" fill="none" xmlns="http://www.w3.org/2000/svg">
<path d="M42.4549 58.3224C51.4029 58.3224 58.657 51.0684 58.657 42.1203C58.657 33.1722 51.4029 25.9183 42.4549 25.9183C33.5067 25.9183 26.2528 33.1722 26.2528 42.1203C26.2528 51.0684 33.5067 58.3224 42.4549 58.3224Z" stroke="white" stroke-width="10.065" stroke-linecap="round" stroke-linejoin="round"/>
<path d="M6 58.3222V25.9181C6 14.7329 15.0674 5.6655 26.2526 5.6655H58.6567C69.8418 5.6655 78.9093 14.7329 78.9093 25.9181V58.3222C78.9093 69.5073 69.8418 78.5748 58.6567 78.5748H26.2526C15.0674 78.5748 6 69.5073 6 58.3222Z" stroke="white" stroke-width="10.065"/>
<path d="M64.7329 19.8882L64.7783 19.8377" stroke="white" stroke-width="10.065" stroke-linecap="round" stroke-linejoin="round"/>
</svg>
