<svg width="102" height="96" viewBox="0 0 102 96" fill="none" xmlns="http://www.w3.org/2000/svg">
<path d="M85.0279 16.4818C81.034 18.4388 77.1199 19.2336 73.0462 20.4358C68.569 15.3834 61.9311 15.1038 55.5528 17.4922C49.1745 19.8806 44.9969 25.7198 45.0888 32.4177V36.4117C32.1285 36.7432 20.5861 30.8401 13.1375 20.4358C13.1375 20.4358 -3.56506 50.123 29.1131 64.3695C21.6365 69.35 14.1799 72.7089 5.14966 72.3574C18.3615 79.5586 32.7596 82.0348 45.2246 78.4163C59.5228 74.2626 71.2729 63.5467 75.782 47.495C77.1271 42.613 77.795 37.5694 77.767 32.5056C77.759 31.5111 83.7978 21.4343 85.0279 16.4778V16.4818Z" stroke="white" stroke-width="9.28933" stroke-linecap="round" stroke-linejoin="round"/>
</svg>
